 0
SECTION
 2
HEADER
 9
$ACADVER
 1
AC1009
 0
ENDSEC
 0
SECTION
 2
TABLES
 0
TABLE
 2
LTYPE
 70
1
 0
LTYPE
 2
CONTINUOUS
 70
64
 3
solid line
 72
65
 73
0
 40
0.0
 0
ENDTAB
 0
TABLE
 2
LAYER
 70
6
 0
LAYER
 2
0
 70
0
 62
7
 6
CONTINUOUS
 0
LAYER
 2
SIDE
 70
64
 62
15
 6
CONTINUOUS
 0
ENDTAB
 0
ENDSEC
 0
SECTION
 2
BLOCKS
 0
ENDSEC
 0
SECTION
 2
ENTITIES
 0
POLYLINE
 8
SIDE
 66
1
 10
0.0
 20
0.0
 30
0.0
 70
64
 71
208
 72
266
 0
VERTEX
 8
SIDE
 10
-24.0848
 20
-0.2774
 30
24.5468
 70
192
 0
VERTEX
 8
SIDE
 10
1.409
 20
-0.2774
 30
24.5468
 70
192
 0
VERTEX
 8
SIDE
 10
1.409
 20
-0.2774
 30
13.1789
 70
192
 0
VERTEX
 8
SIDE
 10
1.3006
 20
-0.2774
 30
13.0674
 70
192
 0
VERTEX
 8
SIDE
 10
1.1297
 20
-0.2774
 30
12.8618
 70
192
 0
VERTEX
 8
SIDE
 10
0.9829
 20
-0.2774
 30
12.65
 70
192
 0
VERTEX
 8
SIDE
 10
0.8643
 20
-0.2774
 30
12.4415
 70
192
 0
VERTEX
 8
SIDE
 10
0.7801
 20
-0.2774
 30
12.2566
 70
192
 0
VERTEX
 8
SIDE
 10
0.7118
 20
-0.2774
 30
12.0579
 70
192
 0
VERTEX
 8
SIDE
 10
0.6746
 20
-0.2774
 30
11.901
 70
192
 0
VERTEX
 8
SIDE
 10
0.652
 20
-0.2774
 30
11.7384
 70
192
 0
VERTEX
 8
SIDE
 10
0.6466
 20
-0.2774
 30
11.5709
 70
192
 0
VERTEX
 8
SIDE
 10
0.661
 20
-0.2774
 30
11.3995
 70
192
 0
VERTEX
 8
SIDE
 10
0.6676
 20
-0.2774
 30
11.3284
 70
192
 0
VERTEX
 8
SIDE
 10
0.6663
 20
-0.2774
 30
11.2139
 70
192
 0
VERTEX
 8
SIDE
 10
0.6464
 20
-0.2774
 30
11.0488
 70
192
 0
VERTEX
 8
SIDE
 10
0.587
 20
-0.2774
 30
10.7826
 70
192
 0
VERTEX
 8
SIDE
 10
0.2765
 20
-0.2774
 30
9.7082
 70
192
 0
VERTEX
 8
SIDE
 10
0.2662
 20
-0.2774
 30
9.6121
 70
192
 0
VERTEX
 8
SIDE
 10
0.266
 20
-0.2774
 30
9.5549
 70
192
 0
VERTEX
 8
SIDE
 10
0.2719
 20
-0.2774
 30
9.5039
 70
192
 0
VERTEX
 8
SIDE
 10
0.2773
 20
-0.2774
 30
9.4808
 70
192
 0
VERTEX
 8
SIDE
 10
0.2933
 20
-0.2774
 30
9.4399
 70
192
 0
VERTEX
 8
SIDE
 10
0.3392
 20
-0.2774
 30
9.3398
 70
192
 0
VERTEX
 8
SIDE
 10
0.4204
 20
-0.2774
 30
9.101
 70
192
 0
VERTEX
 8
SIDE
 10
0.6259
 20
-0.2774
 30
8.4599
 70
192
 0
VERTEX
 8
SIDE
 10
0.7258
 20
-0.2774
 30
8.2419
 70
192
 0
VERTEX
 8
SIDE
 10
0.8071
 20
-0.2774
 30
8.102
 70
192
 0
VERTEX
 8
SIDE
 10
0.9025
 20
-0.2774
 30
7.9693
 70
192
 0
VERTEX
 8
SIDE
 10
0.9845
 20
-0.2774
 30
7.8758
 70
192
 0
VERTEX
 8
SIDE
 10
1.0765
 20
-0.2774
 30
7.7886
 70
192
 0
VERTEX
 8
SIDE
 10
1.0992
 20
-0.2774
 30
7.7653
 70
192
 0
VERTEX
 8
SIDE
 10
1.1208
 20
-0.2774
 30
7.7359
 70
192
 0
VERTEX
 8
SIDE
 10
1.1413
 20
-0.2774
 30
7.7006
 70
192
 0
VERTEX
 8
SIDE
 10
1.1698
 20
-0.2774
 30
7.6377
 70
192
 0
VERTEX
 8
SIDE
 10
1.2038
 20
-0.2774
 30
7.5373
 70
192
 0
VERTEX
 8
SIDE
 10
1.2459
 20
-0.2774
 30
7.3573
 70
192
 0
VERTEX
 8
SIDE
 10
1.2888
 20
-0.2774
 30
7.0417
 70
192
 0
VERTEX
 8
SIDE
 10
1.3076
 20
-0.2774
 30
6.628
 70
192
 0
VERTEX
 8
SIDE
 10
1.3036
 20
-0.2774
 30
6.4458
 70
192
 0
VERTEX
 8
SIDE
 10
1.2883
 20
-0.2774
 30
6.2436
 70
192
 0
VERTEX
 8
SIDE
 10
1.2637
 20
-0.2774
 30
6.0926
 70
192
 0
VERTEX
 8
SIDE
 10
1.2136
 20
-0.2774
 30
5.9067
 70
192
 0
VERTEX
 8
SIDE
 10
1.116
 20
-0.2774
 30
5.6496
 70
192
 0
VERTEX
 8
SIDE
 10
0.6711
 20
-0.2774
 30
4.6403
 70
192
 0
VERTEX
 8
SIDE
 10
0.6364
 20
-0.2774
 30
4.5215
 70
192
 0
VERTEX
 8
SIDE
 10
0.6008
 20
-0.2774
 30
4.3596
 70
192
 0
VERTEX
 8
SIDE
 10
0.5212
 20
-0.2774
 30
3.9981
 70
192
 0
VERTEX
 8
SIDE
 10
0.4273
 20
-0.2774
 30
3.7098
 70
192
 0
VERTEX
 8
SIDE
 10
0.3248
 20
-0.2774
 30
3.4789
 70
192
 0
VERTEX
 8
SIDE
 10
0.1849
 20
-0.2774
 30
3.2329
 70
192
 0
VERTEX
 8
SIDE
 10
-0.0181
 20
-0.2774
 30
2.8946
 70
192
 0
VERTEX
 8
SIDE
 10
-0.067
 20
-0.2774
 30
2.7851
 70
192
 0
VERTEX
 8
SIDE
 10
-0.0975
 20
-0.2774
 30
2.6962
 70
192
 0
VERTEX
 8
SIDE
 10
-0.1289
 20
-0.2774
 30
2.5649
 70
192
 0
VERTEX
 8
SIDE
 10
-0.1474
 20
-0.2774
 30
2.4141
 70
192
 0
VERTEX
 8
SIDE
 10
-0.15
 20
-0.2774
 30
2.2646
 70
192
 0
VERTEX
 8
SIDE
 10
-0.1352
 20
-0.2774
 30
2.0794
 70
192
 0
VERTEX
 8
SIDE
 10
-0.0834
 20
-0.2774
 30
1.7862
 70
192
 0
VERTEX
 8
SIDE
 10
0.0492
 20
-0.2774
 30
1.136
 70
192
 0
VERTEX
 8
SIDE
 10
0.0628
 20
-0.2774
 30
0.9565
 70
192
 0
VERTEX
 8
SIDE
 10
0.0614
 20
-0.2774
 30
0.8488
 70
192
 0
VERTEX
 8
SIDE
 10
0.0512
 20
-0.2774
 30
0.7411
 70
192
 0
VERTEX
 8
SIDE
 10
0.0296
 20
-0.2774
 30
0.4945
 70
192
 0
VERTEX
 8
SIDE
 10
0.0326
 20
-0.2774
 30
0.3279
 70
192
 0
VERTEX
 8
SIDE
 10
0.0505
 20
-0.2774
 30
0.1844
 70
192
 0
VERTEX
 8
SIDE
 10
0.0805
 20
-0.2774
 30
0.0605
 70
192
 0
VERTEX
 8
SIDE
 10
0.1196
 20
-0.2774
 30
-0.0476
 70
192
 0
VERTEX
 8
SIDE
 10
0.1772
 20
-0.2774
 30
-0.1658
 70
192
 0
VERTEX
 8
SIDE
 10
0.3623
 20
-0.2774
 30
-0.4985
 70
192
 0
VERTEX
 8
SIDE
 10
0.387
 20
-0.2774
 30
-0.5661
 70
192
 0
VERTEX
 8
SIDE
 10
0.4001
 20
-0.2774
 30
-0.6142
 70
192
 0
VERTEX
 8
SIDE
 10
0.4139
 20
-0.2774
 30
-0.6917
 70
192
 0
VERTEX
 8
SIDE
 10
0.4861
 20
-0.2774
 30
-1.3735
 70
192
 0
VERTEX
 8
SIDE
 10
0.4826
 20
-0.2774
 30
-1.5365
 70
192
 0
VERTEX
 8
SIDE
 10
0.4666
 20
-0.2774
 30
-1.6665
 70
192
 0
VERTEX
 8
SIDE
 10
0.4433
 20
-0.2774
 30
-1.7656
 70
192
 0
VERTEX
 8
SIDE
 10
0.4189
 20
-0.2774
 30
-1.8366
 70
192
 0
VERTEX
 8
SIDE
 10
0.3879
 20
-0.2774
 30
-1.9044
 70
192
 0
VERTEX
 8
SIDE
 10
0.3633
 20
-0.2774
 30
-1.9476
 70
192
 0
VERTEX
 8
SIDE
 10
0.3201
 20
-0.2774
 30
-2.0094
 70
192
 0
VERTEX
 8
SIDE
 10
0.2442
 20
-0.2774
 30
-2.1166
 70
192
 0
VERTEX
 8
SIDE
 10
0.1847
 20
-0.2774
 30
-2.2229
 70
192
 0
VERTEX
 8
SIDE
 10
0.1398
 20
-0.2774
 30
-2.3283
 70
192
 0
VERTEX
 8
SIDE
 10
0.1073
 20
-0.2774
 30
-2.4327
 70
192
 0
VERTEX
 8
SIDE
 10
0.0811
 20
-0.2774
 30
-2.562
 70
192
 0
VERTEX
 8
SIDE
 10
0.0618
 20
-0.2774
 30
-2.9167
 70
192
 0
VERTEX
 8
SIDE
 10
0.0521
 20
-0.2774
 30
-3.2849
 70
192
 0
VERTEX
 8
SIDE
 10
-0.013
 20
-0.2774
 30
-3.9408
 70
192
 0
VERTEX
 8
SIDE
 10
-0.0069
 20
-0.2774
 30
-4.0919
 70
192
 0
VERTEX
 8
SIDE
 10
0.0069
 20
-0.2774
 30
-4.1885
 70
192
 0
VERTEX
 8
SIDE
 10
0.0301
 20
-0.2774
 30
-4.281
 70
192
 0
VERTEX
 8
SIDE
 10
0.0546
 20
-0.2774
 30
-4.3471
 70
192
 0
VERTEX
 8
SIDE
 10
0.0857
 20
-0.2774
 30
-4.4101
 70
192
 0
VERTEX
 8
SIDE
 10
0.1104
 20
-0.2774
 30
-4.4502
 70
192
 0
VERTEX
 8
SIDE
 10
0.154
 20
-0.2774
 30
-4.5073
 70
192
 0
VERTEX
 8
SIDE
 10
0.1948
 20
-0.2774
 30
-4.5589
 70
192
 0
VERTEX
 8
SIDE
 10
0.2399
 20
-0.2774
 30
-4.6298
 70
192
 0
VERTEX
 8
SIDE
 10
0.2759
 20
-0.2774
 30
-4.7028
 70
192
 0
VERTEX
 8
SIDE
 10
0.3042
 20
-0.2774
 30
-4.7775
 70
192
 0
VERTEX
 8
SIDE
 10
0.3353
 20
-0.2774
 30
-4.8922
 70
192
 0
VERTEX
 8
SIDE
 10
0.3807
 20
-0.2774
 30
-5.166
 70
192
 0
VERTEX
 8
SIDE
 10
0.444
 20
-0.2774
 30
-5.456
 70
192
 0
VERTEX
 8
SIDE
 10
-24.0848
 20
-0.2774
 30
-5.456
 70
192
 0
VERTEX
 8
SIDE
 10
-24.0848
 20
0.3526
 30
24.5468
 70
192
 0
VERTEX
 8
SIDE
 10
1.409
 20
0.3526
 30
24.5468
 70
192
 0
VERTEX
 8
SIDE
 10
1.409
 20
0.3526
 30
13.1789
 70
192
 0
VERTEX
 8
SIDE
 10
1.3006
 20
0.3526
 30
13.0674
 70
192
 0
VERTEX
 8
SIDE
 10
1.1297
 20
0.3526
 30
12.8618
 70
192
 0
VERTEX
 8
SIDE
 10
0.9829
 20
0.3526
 30
12.65
 70
192
 0
VERTEX
 8
SIDE
 10
0.8643
 20
0.3526
 30
12.4415
 70
192
 0
VERTEX
 8
SIDE
 10
0.7801
 20
0.3526
 30
12.2566
 70
192
 0
VERTEX
 8
SIDE
 10
0.7118
 20
0.3526
 30
12.0579
 70
192
 0
VERTEX
 8
SIDE
 10
0.6746
 20
0.3526
 30
11.901
 70
192
 0
VERTEX
 8
SIDE
 10
0.652
 20
0.3526
 30
11.7384
 70
192
 0
VERTEX
 8
SIDE
 10
0.6466
 20
0.3526
 30
11.5709
 70
192
 0
VERTEX
 8
SIDE
 10
0.661
 20
0.3526
 30
11.3995
 70
192
 0
VERTEX
 8
SIDE
 10
0.6676
 20
0.3526
 30
11.3284
 70
192
 0
VERTEX
 8
SIDE
 10
0.6663
 20
0.3526
 30
11.2139
 70
192
 0
VERTEX
 8
SIDE
 10
0.6464
 20
0.3526
 30
11.0488
 70
192
 0
VERTEX
 8
SIDE
 10
0.587
 20
0.3526
 30
10.7826
 70
192
 0
VERTEX
 8
SIDE
 10
0.2765
 20
0.3526
 30
9.7082
 70
192
 0
VERTEX
 8
SIDE
 10
0.2662
 20
0.3526
 30
9.6121
 70
192
 0
VERTEX
 8
SIDE
 10
0.266
 20
0.3526
 30
9.5549
 70
192
 0
VERTEX
 8
SIDE
 10
0.2719
 20
0.3526
 30
9.5039
 70
192
 0
VERTEX
 8
SIDE
 10
0.2773
 20
0.3526
 30
9.4808
 70
192
 0
VERTEX
 8
SIDE
 10
0.2933
 20
0.3526
 30
9.4399
 70
192
 0
VERTEX
 8
SIDE
 10
0.3392
 20
0.3526
 30
9.3398
 70
192
 0
VERTEX
 8
SIDE
 10
0.4204
 20
0.3526
 30
9.101
 70
192
 0
VERTEX
 8
SIDE
 10
0.6259
 20
0.3526
 30
8.4599
 70
192
 0
VERTEX
 8
SIDE
 10
0.7258
 20
0.3526
 30
8.2419
 70
192
 0
VERTEX
 8
SIDE
 10
0.8071
 20
0.3526
 30
8.102
 70
192
 0
VERTEX
 8
SIDE
 10
0.9025
 20
0.3526
 30
7.9693
 70
192
 0
VERTEX
 8
SIDE
 10
0.9845
 20
0.3526
 30
7.8758
 70
192
 0
VERTEX
 8
SIDE
 10
1.0765
 20
0.3526
 30
7.7886
 70
192
 0
VERTEX
 8
SIDE
 10
1.0992
 20
0.3526
 30
7.7653
 70
192
 0
VERTEX
 8
SIDE
 10
1.1208
 20
0.3526
 30
7.7359
 70
192
 0
VERTEX
 8
SIDE
 10
1.1413
 20
0.3526
 30
7.7006
 70
192
 0
VERTEX
 8
SIDE
 10
1.1698
 20
0.3526
 30
7.6377
 70
192
 0
VERTEX
 8
SIDE
 10
1.2038
 20
0.3526
 30
7.5373
 70
192
 0
VERTEX
 8
SIDE
 10
1.2459
 20
0.3526
 30
7.3573
 70
192
 0
VERTEX
 8
SIDE
 10
1.2888
 20
0.3526
 30
7.0417
 70
192
 0
VERTEX
 8
SIDE
 10
1.3076
 20
0.3526
 30
6.628
 70
192
 0
VERTEX
 8
SIDE
 10
1.3036
 20
0.3526
 30
6.4458
 70
192
 0
VERTEX
 8
SIDE
 10
1.2883
 20
0.3526
 30
6.2436
 70
192
 0
VERTEX
 8
SIDE
 10
1.2637
 20
0.3526
 30
6.0926
 70
192
 0
VERTEX
 8
SIDE
 10
1.2136
 20
0.3526
 30
5.9067
 70
192
 0
VERTEX
 8
SIDE
 10
1.116
 20
0.3526
 30
5.6496
 70
192
 0
VERTEX
 8
SIDE
 10
0.6711
 20
0.3526
 30
4.6403
 70
192
 0
VERTEX
 8
SIDE
 10
0.6364
 20
0.3526
 30
4.5215
 70
192
 0
VERTEX
 8
SIDE
 10
0.6008
 20
0.3526
 30
4.3596
 70
192
 0
VERTEX
 8
SIDE
 10
0.5212
 20
0.3526
 30
3.9981
 70
192
 0
VERTEX
 8
SIDE
 10
0.4273
 20
0.3526
 30
3.7098
 70
192
 0
VERTEX
 8
SIDE
 10
0.3248
 20
0.3526
 30
3.4789
 70
192
 0
VERTEX
 8
SIDE
 10
0.1849
 20
0.3526
 30
3.2329
 70
192
 0
VERTEX
 8
SIDE
 10
-0.0181
 20
0.3526
 30
2.8946
 70
192
 0
VERTEX
 8
SIDE
 10
-0.067
 20
0.3526
 30
2.7851
 70
192
 0
VERTEX
 8
SIDE
 10
-0.0975
 20
0.3526
 30
2.6962
 70
192
 0
VERTEX
 8
SIDE
 10
-0.1289
 20
0.3526
 30
2.5649
 70
192
 0
VERTEX
 8
SIDE
 10
-0.1474
 20
0.3526
 30
2.4141
 70
192
 0
VERTEX
 8
SIDE
 10
-0.15
 20
0.3526
 30
2.2646
 70
192
 0
VERTEX
 8
SIDE
 10
-0.1352
 20
0.3526
 30
2.0794
 70
192
 0
VERTEX
 8
SIDE
 10
-0.0834
 20
0.3526
 30
1.7862
 70
192
 0
VERTEX
 8
SIDE
 10
0.0492
 20
0.3526
 30
1.136
 70
192
 0
VERTEX
 8
SIDE
 10
0.0628
 20
0.3526
 30
0.9565
 70
192
 0
VERTEX
 8
SIDE
 10
0.0614
 20
0.3526
 30
0.8488
 70
192
 0
VERTEX
 8
SIDE
 10
0.0512
 20
0.3526
 30
0.7411
 70
192
 0
VERTEX
 8
SIDE
 10
0.0296
 20
0.3526
 30
0.4945
 70
192
 0
VERTEX
 8
SIDE
 10
0.0326
 20
0.3526
 30
0.3279
 70
192
 0
VERTEX
 8
SIDE
 10
0.0505
 20
0.3526
 30
0.1844
 70
192
 0
VERTEX
 8
SIDE
 10
0.0805
 20
0.3526
 30
0.0605
 70
192
 0
VERTEX
 8
SIDE
 10
0.1196
 20
0.3526
 30
-0.0476
 70
192
 0
VERTEX
 8
SIDE
 10
0.1772
 20
0.3526
 30
-0.1658
 70
192
 0
VERTEX
 8
SIDE
 10
0.3623
 20
0.3526
 30
-0.4985
 70
192
 0
VERTEX
 8
SIDE
 10
0.387
 20
0.3526
 30
-0.5661
 70
192
 0
VERTEX
 8
SIDE
 10
0.4001
 20
0.3526
 30
-0.6142
 70
192
 0
VERTEX
 8
SIDE
 10
0.4139
 20
0.3526
 30
-0.6917
 70
192
 0
VERTEX
 8
SIDE
 10
0.4861
 20
0.3526
 30
-1.3735
 70
192
 0
VERTEX
 8
SIDE
 10
0.4826
 20
0.3526
 30
-1.5365
 70
192
 0
VERTEX
 8
SIDE
 10
0.4666
 20
0.3526
 30
-1.6665
 70
192
 0
VERTEX
 8
SIDE
 10
0.4433
 20
0.3526
 30
-1.7656
 70
192
 0
VERTEX
 8
SIDE
 10
0.4189
 20
0.3526
 30
-1.8366
 70
192
 0
VERTEX
 8
SIDE
 10
0.3879
 20
0.3526
 30
-1.9044
 70
192
 0
VERTEX
 8
SIDE
 10
0.3633
 20
0.3526
 30
-1.9476
 70
192
 0
VERTEX
 8
SIDE
 10
0.3201
 20
0.3526
 30
-2.0094
 70
192
 0
VERTEX
 8
SIDE
 10
0.2442
 20
0.3526
 30
-2.1166
 70
192
 0
VERTEX
 8
SIDE
 10
0.1847
 20
0.3526
 30
-2.2229
 70
192
 0
VERTEX
 8
SIDE
 10
0.1398
 20
0.3526
 30
-2.3283
 70
192
 0
VERTEX
 8
SIDE
 10
0.1073
 20
0.3526
 30
-2.4327
 70
192
 0
VERTEX
 8
SIDE
 10
0.0811
 20
0.3526
 30
-2.562
 70
192
 0
VERTEX
 8
SIDE
 10
0.0618
 20
0.3526
 30
-2.9167
 70
192
 0
VERTEX
 8
SIDE
 10
0.0521
 20
0.3526
 30
-3.2849
 70
192
 0
VERTEX
 8
SIDE
 10
-0.013
 20
0.3526
 30
-3.9408
 70
192
 0
VERTEX
 8
SIDE
 10
-0.0069
 20
0.3526
 30
-4.0919
 70
192
 0
VERTEX
 8
SIDE
 10
0.0069
 20
0.3526
 30
-4.1885
 70
192
 0
VERTEX
 8
SIDE
 10
0.0301
 20
0.3526
 30
-4.281
 70
192
 0
VERTEX
 8
SIDE
 10
0.0546
 20
0.3526
 30
-4.3471
 70
192
 0
VERTEX
 8
SIDE
 10
0.0857
 20
0.3526
 30
-4.4101
 70
192
 0
VERTEX
 8
SIDE
 10
0.1104
 20
0.3526
 30
-4.4502
 70
192
 0
VERTEX
 8
SIDE
 10
0.154
 20
0.3526
 30
-4.5073
 70
192
 0
VERTEX
 8
SIDE
 10
0.1948
 20
0.3526
 30
-4.5589
 70
192
 0
VERTEX
 8
SIDE
 10
0.2399
 20
0.3526
 30
-4.6298
 70
192
 0
VERTEX
 8
SIDE
 10
0.2759
 20
0.3526
 30
-4.7028
 70
192
 0
VERTEX
 8
SIDE
 10
0.3042
 20
0.3526
 30
-4.7775
 70
192
 0
VERTEX
 8
SIDE
 10
0.3353
 20
0.3526
 30
-4.8922
 70
192
 0
VERTEX
 8
SIDE
 10
0.3807
 20
0.3526
 30
-5.166
 70
192
 0
VERTEX
 8
SIDE
 10
0.444
 20
0.3526
 30
-5.456
 70
192
 0
VERTEX
 8
SIDE
 10
-24.0848
 20
0.3526
 30
-5.456
 70
192
 0
VERTEX
 8
SIDE
 10
0
 20
0
 30
0
 70
128
 71
1
 72
105
 73
106
 74
2
 0
VERTEX
 8
SIDE
 10
0
 20
0
 30
0
 70
128
 71
2
 72
106
 73
107
 74
3
 0
VERTEX
 8
SIDE
 10
0
 20
0
 30
0
 70
128
 71
3
 72
107
 73
108
 74
4
 0
VERTEX
 8
SIDE
 10
0
 20
0
 30
0
 70
128
 71
4
 72
108
 73
109
 74
5
 0
VERTEX
 8
SIDE
 10
0
 20
0
 30
0
 70
128
 71
5
 72
109
 73
110
 74
6
 0
VERTEX
 8
SIDE
 10
0
 20
0
 30
0
 70
128
 71
6
 72
110
 73
111
 74
7
 0
VERTEX
 8
SIDE
 10
0
 20
0
 30
0
 70
128
 71
7
 72
111
 73
112
 74
8
 0
VERTEX
 8
SIDE
 10
0
 20
0
 30
0
 70
128
 71
8
 72
112
 73
113
 74
9
 0
VERTEX
 8
SIDE
 10
0
 20
0
 30
0
 70
128
 71
9
 72
113
 73
114
 74
10
 0
VERTEX
 8
SIDE
 10
0
 20
0
 30
0
 70
128
 71
10
 72
114
 73
115
 74
11
 0
VERTEX
 8
SIDE
 10
0
 20
0
 30
0
 70
128
 71
11
 72
115
 73
116
 74
12
 0
VERTEX
 8
SIDE
 10
0
 20
0
 30
0
 70
128
 71
12
 72
116
 73
117
 74
13
 0
VERTEX
 8
SIDE
 10
0
 20
0
 30
0
 70
128
 71
13
 72
117
 73
118
 74
14
 0
VERTEX
 8
SIDE
 10
0
 20
0
 30
0
 70
128
 71
14
 72
118
 73
119
 74
15
 0
VERTEX
 8
SIDE
 10
0
 20
0
 30
0
 70
128
 71
15
 72
119
 73
120
 74
16
 0
VERTEX
 8
SIDE
 10
0
 20
0
 30
0
 70
128
 71
16
 72
120
 73
121
 74
17
 0
VERTEX
 8
SIDE
 10
0
 20
0
 30
0
 70
128
 71
17
 72
121
 73
122
 74
18
 0
VERTEX
 8
SIDE
 10
0
 20
0
 30
0
 70
128
 71
18
 72
122
 73
123
 74
19
 0
VERTEX
 8
SIDE
 10
0
 20
0
 30
0
 70
128
 71
19
 72
123
 73
124
 74
20
 0
VERTEX
 8
SIDE
 10
0
 20
0
 30
0
 70
128
 71
20
 72
124
 73
125
 74
21
 0
VERTEX
 8
SIDE
 10
0
 20
0
 30
0
 70
128
 71
21
 72
125
 73
126
 74
22
 0
VERTEX
 8
SIDE
 10
0
 20
0
 30
0
 70
128
 71
22
 72
126
 73
127
 74
23
 0
VERTEX
 8
SIDE
 10
0
 20
0
 30
0
 70
128
 71
23
 72
127
 73
128
 74
24
 0
VERTEX
 8
SIDE
 10
0
 20
0
 30
0
 70
128
 71
24
 72
128
 73
129
 74
25
 0
VERTEX
 8
SIDE
 10
0
 20
0
 30
0
 70
128
 71
25
 72
129
 73
130
 74
26
 0
VERTEX
 8
SIDE
 10
0
 20
0
 30
0
 70
128
 71
26
 72
130
 73
131
 74
27
 0
VERTEX
 8
SIDE
 10
0
 20
0
 30
0
 70
128
 71
27
 72
131
 73
132
 74
28
 0
VERTEX
 8
SIDE
 10
0
 20
0
 30
0
 70
128
 71
28
 72
132
 73
133
 74
29
 0
VERTEX
 8
SIDE
 10
0
 20
0
 30
0
 70
128
 71
29
 72
133
 73
134
 74
30
 0
VERTEX
 8
SIDE
 10
0
 20
0
 30
0
 70
128
 71
30
 72
134
 73
135
 74
31
 0
VERTEX
 8
SIDE
 10
0
 20
0
 30
0
 70
128
 71
31
 72
135
 73
136
 74
32
 0
VERTEX
 8
SIDE
 10
0
 20
0
 30
0
 70
128
 71
32
 72
136
 73
137
 74
33
 0
VERTEX
 8
SIDE
 10
0
 20
0
 30
0
 70
128
 71
33
 72
137
 73
138
 74
34
 0
VERTEX
 8
SIDE
 10
0
 20
0
 30
0
 70
128
 71
34
 72
138
 73
139
 74
35
 0
VERTEX
 8
SIDE
 10
0
 20
0
 30
0
 70
128
 71
35
 72
139
 73
140
 74
36
 0
VERTEX
 8
SIDE
 10
0
 20
0
 30
0
 70
128
 71
36
 72
140
 73
141
 74
37
 0
VERTEX
 8
SIDE
 10
0
 20
0
 30
0
 70
128
 71
37
 72
141
 73
142
 74
38
 0
VERTEX
 8
SIDE
 10
0
 20
0
 30
0
 70
128
 71
38
 72
142
 73
143
 74
39
 0
VERTEX
 8
SIDE
 10
0
 20
0
 30
0
 70
128
 71
39
 72
143
 73
144
 74
40
 0
VERTEX
 8
SIDE
 10
0
 20
0
 30
0
 70
128
 71
40
 72
144
 73
145
 74
41
 0
VERTEX
 8
SIDE
 10
0
 20
0
 30
0
 70
128
 71
41
 72
145
 73
146
 74
42
 0
VERTEX
 8
SIDE
 10
0
 20
0
 30
0
 70
128
 71
42
 72
146
 73
147
 74
43
 0
VERTEX
 8
SIDE
 10
0
 20
0
 30
0
 70
128
 71
43
 72
147
 73
148
 74
44
 0
VERTEX
 8
SIDE
 10
0
 20
0
 30
0
 70
128
 71
44
 72
148
 73
149
 74
45
 0
VERTEX
 8
SIDE
 10
0
 20
0
 30
0
 70
128
 71
45
 72
149
 73
150
 74
46
 0
VERTEX
 8
SIDE
 10
0
 20
0
 30
0
 70
128
 71
46
 72
150
 73
151
 74
47
 0
VERTEX
 8
SIDE
 10
0
 20
0
 30
0
 70
128
 71
47
 72
151
 73
152
 74
48
 0
VERTEX
 8
SIDE
 10
0
 20
0
 30
0
 70
128
 71
48
 72
152
 73
153
 74
49
 0
VERTEX
 8
SIDE
 10
0
 20
0
 30
0
 70
128
 71
49
 72
153
 73
154
 74
50
 0
VERTEX
 8
SIDE
 10
0
 20
0
 30
0
 70
128
 71
50
 72
154
 73
155
 74
51
 0
VERTEX
 8
SIDE
 10
0
 20
0
 30
0
 70
128
 71
51
 72
155
 73
156
 74
52
 0
VERTEX
 8
SIDE
 10
0
 20
0
 30
0
 70
128
 71
52
 72
156
 73
157
 74
53
 0
VERTEX
 8
SIDE
 10
0
 20
0
 30
0
 70
128
 71
53
 72
157
 73
158
 74
54
 0
VERTEX
 8
SIDE
 10
0
 20
0
 30
0
 70
128
 71
54
 72
158
 73
159
 74
55
 0
VERTEX
 8
SIDE
 10
0
 20
0
 30
0
 70
128
 71
55
 72
159
 73
160
 74
56
 0
VERTEX
 8
SIDE
 10
0
 20
0
 30
0
 70
128
 71
56
 72
160
 73
161
 74
57
 0
VERTEX
 8
SIDE
 10
0
 20
0
 30
0
 70
128
 71
57
 72
161
 73
162
 74
58
 0
VERTEX
 8
SIDE
 10
0
 20
0
 30
0
 70
128
 71
58
 72
162
 73
163
 74
59
 0
VERTEX
 8
SIDE
 10
0
 20
0
 30
0
 70
128
 71
59
 72
163
 73
164
 74
60
 0
VERTEX
 8
SIDE
 10
0
 20
0
 30
0
 70
128
 71
60
 72
164
 73
165
 74
61
 0
VERTEX
 8
SIDE
 10
0
 20
0
 30
0
 70
128
 71
61
 72
165
 73
166
 74
62
 0
VERTEX
 8
SIDE
 10
0
 20
0
 30
0
 70
128
 71
62
 72
166
 73
167
 74
63
 0
VERTEX
 8
SIDE
 10
0
 20
0
 30
0
 70
128
 71
63
 72
167
 73
168
 74
64
 0
VERTEX
 8
SIDE
 10
0
 20
0
 30
0
 70
128
 71
64
 72
168
 73
169
 74
65
 0
VERTEX
 8
SIDE
 10
0
 20
0
 30
0
 70
128
 71
65
 72
169
 73
170
 74
66
 0
VERTEX
 8
SIDE
 10
0
 20
0
 30
0
 70
128
 71
66
 72
170
 73
171
 74
67
 0
VERTEX
 8
SIDE
 10
0
 20
0
 30
0
 70
128
 71
67
 72
171
 73
172
 74
68
 0
VERTEX
 8
SIDE
 10
0
 20
0
 30
0
 70
128
 71
68
 72
172
 73
173
 74
69
 0
VERTEX
 8
SIDE
 10
0
 20
0
 30
0
 70
128
 71
69
 72
173
 73
174
 74
70
 0
VERTEX
 8
SIDE
 10
0
 20
0
 30
0
 70
128
 71
70
 72
174
 73
175
 74
71
 0
VERTEX
 8
SIDE
 10
0
 20
0
 30
0
 70
128
 71
71
 72
175
 73
176
 74
72
 0
VERTEX
 8
SIDE
 10
0
 20
0
 30
0
 70
128
 71
72
 72
176
 73
177
 74
73
 0
VERTEX
 8
SIDE
 10
0
 20
0
 30
0
 70
128
 71
73
 72
177
 73
178
 74
74
 0
VERTEX
 8
SIDE
 10
0
 20
0
 30
0
 70
128
 71
74
 72
178
 73
179
 74
75
 0
VERTEX
 8
SIDE
 10
0
 20
0
 30
0
 70
128
 71
75
 72
179
 73
180
 74
76
 0
VERTEX
 8
SIDE
 10
0
 20
0
 30
0
 70
128
 71
76
 72
180
 73
181
 74
77
 0
VERTEX
 8
SIDE
 10
0
 20
0
 30
0
 70
128
 71
77
 72
181
 73
182
 74
78
 0
VERTEX
 8
SIDE
 10
0
 20
0
 30
0
 70
128
 71
78
 72
182
 73
183
 74
79
 0
VERTEX
 8
SIDE
 10
0
 20
0
 30
0
 70
128
 71
79
 72
183
 73
184
 74
80
 0
VERTEX
 8
SIDE
 10
0
 20
0
 30
0
 70
128
 71
80
 72
184
 73
185
 74
81
 0
VERTEX
 8
SIDE
 10
0
 20
0
 30
0
 70
128
 71
81
 72
185
 73
186
 74
82
 0
VERTEX
 8
SIDE
 10
0
 20
0
 30
0
 70
128
 71
82
 72
186
 73
187
 74
83
 0
VERTEX
 8
SIDE
 10
0
 20
0
 30
0
 70
128
 71
83
 72
187
 73
188
 74
84
 0
VERTEX
 8
SIDE
 10
0
 20
0
 30
0
 70
128
 71
84
 72
188
 73
189
 74
85
 0
VERTEX
 8
SIDE
 10
0
 20
0
 30
0
 70
128
 71
85
 72
189
 73
190
 74
86
 0
VERTEX
 8
SIDE
 10
0
 20
0
 30
0
 70
128
 71
86
 72
190
 73
191
 74
87
 0
VERTEX
 8
SIDE
 10
0
 20
0
 30
0
 70
128
 71
87
 72
191
 73
192
 74
88
 0
VERTEX
 8
SIDE
 10
0
 20
0
 30
0
 70
128
 71
88
 72
192
 73
193
 74
89
 0
VERTEX
 8
SIDE
 10
0
 20
0
 30
0
 70
128
 71
89
 72
193
 73
194
 74
90
 0
VERTEX
 8
SIDE
 10
0
 20
0
 30
0
 70
128
 71
90
 72
194
 73
195
 74
91
 0
VERTEX
 8
SIDE
 10
0
 20
0
 30
0
 70
128
 71
91
 72
195
 73
196
 74
92
 0
VERTEX
 8
SIDE
 10
0
 20
0
 30
0
 70
128
 71
92
 72
196
 73
197
 74
93
 0
VERTEX
 8
SIDE
 10
0
 20
0
 30
0
 70
128
 71
93
 72
197
 73
198
 74
94
 0
VERTEX
 8
SIDE
 10
0
 20
0
 30
0
 70
128
 71
94
 72
198
 73
199
 74
95
 0
VERTEX
 8
SIDE
 10
0
 20
0
 30
0
 70
128
 71
95
 72
199
 73
200
 74
96
 0
VERTEX
 8
SIDE
 10
0
 20
0
 30
0
 70
128
 71
96
 72
200
 73
201
 74
97
 0
VERTEX
 8
SIDE
 10
0
 20
0
 30
0
 70
128
 71
97
 72
201
 73
202
 74
98
 0
VERTEX
 8
SIDE
 10
0
 20
0
 30
0
 70
128
 71
98
 72
202
 73
203
 74
99
 0
VERTEX
 8
SIDE
 10
0
 20
0
 30
0
 70
128
 71
99
 72
203
 73
204
 74
100
 0
VERTEX
 8
SIDE
 10
0
 20
0
 30
0
 70
128
 71
100
 72
204
 73
205
 74
101
 0
VERTEX
 8
SIDE
 10
0
 20
0
 30
0
 70
128
 71
101
 72
205
 73
206
 74
102
 0
VERTEX
 8
SIDE
 10
0
 20
0
 30
0
 70
128
 71
102
 72
206
 73
207
 74
103
 0
VERTEX
 8
SIDE
 10
0
 20
0
 30
0
 70
128
 71
103
 72
207
 73
208
 74
104
 0
VERTEX
 8
SIDE
 10
0
 20
0
 30
0
 70
128
 71
104
 72
208
 73
105
 74
1
 0
VERTEX
 8
SIDE
 10
0
 20
0
 30
0
 70
128
 71
52
 72
53
 73
45
 74
46
 0
VERTEX
 8
SIDE
 10
0
 20
0
 30
0
 70
128
 71
34
 72
35
 73
31
 74
33
 0
VERTEX
 8
SIDE
 10
0
 20
0
 30
0
 70
128
 71
83
 72
84
 73
68
 74
69
 0
VERTEX
 8
SIDE
 10
0
 20
0
 30
0
 70
128
 71
81
 72
78
 73
79
 74
80
 0
VERTEX
 8
SIDE
 10
0
 20
0
 30
0
 70
128
 71
39
 72
40
 73
28
 74
29
 0
VERTEX
 8
SIDE
 10
0
 20
0
 30
0
 70
128
 71
51
 72
52
 73
47
 74
48
 0
VERTEX
 8
SIDE
 10
0
 20
0
 30
0
 70
128
 71
83
 72
72
 73
73
 74
82
 0
VERTEX
 8
SIDE
 10
0
 20
0
 30
0
 70
128
 71
51
 72
48
 73
49
 74
50
 0
VERTEX
 8
SIDE
 10
0
 20
0
 30
0
 70
128
 71
81
 72
82
 73
74
 74
75
 0
VERTEX
 8
SIDE
 10
0
 20
0
 30
0
 70
128
 71
12
 72
18
 73
104
 74
1
 0
VERTEX
 8
SIDE
 10
0
 20
0
 30
0
 70
128
 71
35
 72
36
 73
30
 74
31
 0
VERTEX
 8
SIDE
 10
0
 20
0
 30
0
 70
128
 71
37
 72
38
 73
30
 74
36
 0
VERTEX
 8
SIDE
 10
0
 20
0
 30
0
 70
128
 71
53
 72
22
 73
26
 74
45
 0
VERTEX
 8
SIDE
 10
0
 20
0
 30
0
 70
128
 71
17
 72
12
 73
13
 74
16
 0
VERTEX
 8
SIDE
 10
0
 20
0
 30
0
 70
128
 71
38
 72
39
 73
29
 74
30
 0
VERTEX
 8
SIDE
 10
0
 20
0
 30
0
 70
128
 71
45
 72
27
 73
28
 74
44
 0
VERTEX
 8
SIDE
 10
0
 20
0
 30
0
 70
128
 71
15
 72
16
 73
13
 74
14
 0
VERTEX
 8
SIDE
 10
0
 20
0
 30
0
 70
128
 71
81
 72
76
 73
77
 74
78
 0
VERTEX
 8
SIDE
 10
0
 20
0
 30
0
 70
128
 71
25
 72
26
 73
22
 74
23
 0
VERTEX
 8
SIDE
 10
0
 20
0
 30
0
 70
128
 71
43
 72
44
 73
28
 74
42
 0
VERTEX
 8
SIDE
 10
0
 20
0
 30
0
 70
128
 71
41
 72
42
 73
28
 74
40
 0
VERTEX
 8
SIDE
 10
0
 20
0
 30
0
 70
128
 71
102
 72
103
 73
104
 74
104
 0
VERTEX
 8
SIDE
 10
0
 20
0
 30
0
 70
128
 71
1
 72
2
 73
3
 74
3
 0
VERTEX
 8
SIDE
 10
0
 20
0
 30
0
 70
128
 71
1
 72
3
 73
4
 74
4
 0
VERTEX
 8
SIDE
 10
0
 20
0
 30
0
 70
128
 71
1
 72
4
 73
5
 74
5
 0
VERTEX
 8
SIDE
 10
0
 20
0
 30
0
 70
128
 71
1
 72
5
 73
6
 74
6
 0
VERTEX
 8
SIDE
 10
0
 20
0
 30
0
 70
128
 71
1
 72
6
 73
7
 74
7
 0
VERTEX
 8
SIDE
 10
0
 20
0
 30
0
 70
128
 71
1
 72
7
 73
8
 74
8
 0
VERTEX
 8
SIDE
 10
0
 20
0
 30
0
 70
128
 71
1
 72
8
 73
9
 74
9
 0
VERTEX
 8
SIDE
 10
0
 20
0
 30
0
 70
128
 71
1
 72
9
 73
10
 74
10
 0
VERTEX
 8
SIDE
 10
0
 20
0
 30
0
 70
128
 71
1
 72
10
 73
11
 74
11
 0
VERTEX
 8
SIDE
 10
0
 20
0
 30
0
 70
128
 71
101
 72
102
 73
104
 74
104
 0
VERTEX
 8
SIDE
 10
0
 20
0
 30
0
 70
128
 71
100
 72
101
 73
104
 74
104
 0
VERTEX
 8
SIDE
 10
0
 20
0
 30
0
 70
128
 71
1
 72
11
 73
12
 74
12
 0
VERTEX
 8
SIDE
 10
0
 20
0
 30
0
 70
128
 71
99
 72
100
 73
104
 74
104
 0
VERTEX
 8
SIDE
 10
0
 20
0
 30
0
 70
128
 71
98
 72
99
 73
104
 74
104
 0
VERTEX
 8
SIDE
 10
0
 20
0
 30
0
 70
128
 71
31
 72
32
 73
33
 74
33
 0
VERTEX
 8
SIDE
 10
0
 20
0
 30
0
 70
128
 71
26
 72
27
 73
45
 74
45
 0
VERTEX
 8
SIDE
 10
0
 20
0
 30
0
 70
128
 71
96
 72
97
 73
98
 74
98
 0
VERTEX
 8
SIDE
 10
0
 20
0
 30
0
 70
128
 71
75
 72
76
 73
81
 74
81
 0
VERTEX
 8
SIDE
 10
0
 20
0
 30
0
 70
128
 71
73
 72
74
 73
82
 74
82
 0
VERTEX
 8
SIDE
 10
0
 20
0
 30
0
 70
128
 71
71
 72
72
 73
83
 74
83
 0
VERTEX
 8
SIDE
 10
0
 20
0
 30
0
 70
128
 71
70
 72
71
 73
83
 74
83
 0
VERTEX
 8
SIDE
 10
0
 20
0
 30
0
 70
128
 71
69
 72
70
 73
83
 74
83
 0
VERTEX
 8
SIDE
 10
0
 20
0
 30
0
 70
128
 71
96
 72
98
 73
104
 74
104
 0
VERTEX
 8
SIDE
 10
0
 20
0
 30
0
 70
128
 71
95
 72
96
 73
104
 74
104
 0
VERTEX
 8
SIDE
 10
0
 20
0
 30
0
 70
128
 71
94
 72
95
 73
104
 74
104
 0
VERTEX
 8
SIDE
 10
0
 20
0
 30
0
 70
128
 71
93
 72
94
 73
104
 74
104
 0
VERTEX
 8
SIDE
 10
0
 20
0
 30
0
 70
128
 71
92
 72
93
 73
104
 74
104
 0
VERTEX
 8
SIDE
 10
0
 20
0
 30
0
 70
128
 71
91
 72
92
 73
104
 74
104
 0
VERTEX
 8
SIDE
 10
0
 20
0
 30
0
 70
128
 71
90
 72
91
 73
104
 74
104
 0
VERTEX
 8
SIDE
 10
0
 20
0
 30
0
 70
128
 71
89
 72
90
 73
104
 74
104
 0
VERTEX
 8
SIDE
 10
0
 20
0
 30
0
 70
128
 71
88
 72
89
 73
104
 74
104
 0
VERTEX
 8
SIDE
 10
0
 20
0
 30
0
 70
128
 71
87
 72
88
 73
104
 74
104
 0
VERTEX
 8
SIDE
 10
0
 20
0
 30
0
 70
128
 71
86
 72
87
 73
104
 74
104
 0
VERTEX
 8
SIDE
 10
0
 20
0
 30
0
 70
128
 71
85
 72
86
 73
104
 74
104
 0
VERTEX
 8
SIDE
 10
0
 20
0
 30
0
 70
128
 71
84
 72
85
 73
104
 74
104
 0
VERTEX
 8
SIDE
 10
0
 20
0
 30
0
 70
128
 71
68
 72
84
 73
104
 74
104
 0
VERTEX
 8
SIDE
 10
0
 20
0
 30
0
 70
128
 71
67
 72
68
 73
104
 74
104
 0
VERTEX
 8
SIDE
 10
0
 20
0
 30
0
 70
128
 71
66
 72
67
 73
104
 74
104
 0
VERTEX
 8
SIDE
 10
0
 20
0
 30
0
 70
128
 71
65
 72
66
 73
104
 74
104
 0
VERTEX
 8
SIDE
 10
0
 20
0
 30
0
 70
128
 71
64
 72
65
 73
104
 74
104
 0
VERTEX
 8
SIDE
 10
0
 20
0
 30
0
 70
128
 71
63
 72
64
 73
104
 74
104
 0
VERTEX
 8
SIDE
 10
0
 20
0
 30
0
 70
128
 71
62
 72
63
 73
104
 74
104
 0
VERTEX
 8
SIDE
 10
0
 20
0
 30
0
 70
128
 71
61
 72
62
 73
104
 74
104
 0
VERTEX
 8
SIDE
 10
0
 20
0
 30
0
 70
128
 71
60
 72
61
 73
104
 74
104
 0
VERTEX
 8
SIDE
 10
0
 20
0
 30
0
 70
128
 71
59
 72
60
 73
104
 74
104
 0
VERTEX
 8
SIDE
 10
0
 20
0
 30
0
 70
128
 71
58
 72
59
 73
104
 74
104
 0
VERTEX
 8
SIDE
 10
0
 20
0
 30
0
 70
128
 71
57
 72
58
 73
104
 74
104
 0
VERTEX
 8
SIDE
 10
0
 20
0
 30
0
 70
128
 71
56
 72
57
 73
104
 74
104
 0
VERTEX
 8
SIDE
 10
0
 20
0
 30
0
 70
128
 71
55
 72
56
 73
104
 74
104
 0
VERTEX
 8
SIDE
 10
0
 20
0
 30
0
 70
128
 71
54
 72
55
 73
104
 74
104
 0
VERTEX
 8
SIDE
 10
0
 20
0
 30
0
 70
128
 71
23
 72
24
 73
25
 74
25
 0
VERTEX
 8
SIDE
 10
0
 20
0
 30
0
 70
128
 71
12
 72
17
 73
18
 74
18
 0
VERTEX
 8
SIDE
 10
0
 20
0
 30
0
 70
128
 71
46
 72
47
 73
52
 74
52
 0
VERTEX
 8
SIDE
 10
0
 20
0
 30
0
 70
128
 71
53
 72
54
 73
104
 74
104
 0
VERTEX
 8
SIDE
 10
0
 20
0
 30
0
 70
128
 71
22
 72
53
 73
104
 74
104
 0
VERTEX
 8
SIDE
 10
0
 20
0
 30
0
 70
128
 71
21
 72
22
 73
104
 74
104
 0
VERTEX
 8
SIDE
 10
0
 20
0
 30
0
 70
128
 71
20
 72
21
 73
104
 74
104
 0
VERTEX
 8
SIDE
 10
0
 20
0
 30
0
 70
128
 71
19
 72
20
 73
104
 74
104
 0
VERTEX
 8
SIDE
 10
0
 20
0
 30
0
 70
128
 71
104
 72
18
 73
19
 74
19
 0
VERTEX
 8
SIDE
 10
0
 20
0
 30
0
 70
128
 71
149
 72
157
 73
156
 74
150
 0
VERTEX
 8
SIDE
 10
0
 20
0
 30
0
 70
128
 71
135
 72
139
 73
138
 74
137
 0
VERTEX
 8
SIDE
 10
0
 20
0
 30
0
 70
128
 71
172
 72
188
 73
187
 74
173
 0
VERTEX
 8
SIDE
 10
0
 20
0
 30
0
 70
128
 71
183
 72
182
 73
185
 74
184
 0
VERTEX
 8
SIDE
 10
0
 20
0
 30
0
 70
128
 71
132
 72
144
 73
143
 74
133
 0
VERTEX
 8
SIDE
 10
0
 20
0
 30
0
 70
128
 71
151
 72
156
 73
155
 74
152
 0
VERTEX
 8
SIDE
 10
0
 20
0
 30
0
 70
128
 71
177
 72
176
 73
187
 74
186
 0
VERTEX
 8
SIDE
 10
0
 20
0
 30
0
 70
128
 71
153
 72
152
 73
155
 74
154
 0
VERTEX
 8
SIDE
 10
0
 20
0
 30
0
 70
128
 71
178
 72
186
 73
185
 74
179
 0
VERTEX
 8
SIDE
 10
0
 20
0
 30
0
 70
128
 71
208
 72
122
 73
116
 74
105
 0
VERTEX
 8
SIDE
 10
0
 20
0
 30
0
 70
128
 71
134
 72
140
 73
139
 74
135
 0
VERTEX
 8
SIDE
 10
0
 20
0
 30
0
 70
128
 71
134
 72
142
 73
141
 74
140
 0
VERTEX
 8
SIDE
 10
0
 20
0
 30
0
 70
128
 71
130
 72
126
 73
157
 74
149
 0
VERTEX
 8
SIDE
 10
0
 20
0
 30
0
 70
128
 71
117
 72
116
 73
121
 74
120
 0
VERTEX
 8
SIDE
 10
0
 20
0
 30
0
 70
128
 71
133
 72
143
 73
142
 74
134
 0
VERTEX
 8
SIDE
 10
0
 20
0
 30
0
 70
128
 71
132
 72
131
 73
149
 74
148
 0
VERTEX
 8
SIDE
 10
0
 20
0
 30
0
 70
128
 71
117
 72
120
 73
119
 74
118
 0
VERTEX
 8
SIDE
 10
0
 20
0
 30
0
 70
128
 71
181
 72
180
 73
185
 74
182
 0
VERTEX
 8
SIDE
 10
0
 20
0
 30
0
 70
128
 71
126
 72
130
 73
129
 74
127
 0
VERTEX
 8
SIDE
 10
0
 20
0
 30
0
 70
128
 71
132
 72
148
 73
147
 74
146
 0
VERTEX
 8
SIDE
 10
0
 20
0
 30
0
 70
128
 71
132
 72
146
 73
145
 74
144
 0
VERTEX
 8
SIDE
 10
0
 20
0
 30
0
 70
128
 71
208
 72
207
 73
206
 74
206
 0
VERTEX
 8
SIDE
 10
0
 20
0
 30
0
 70
128
 71
107
 72
106
 73
105
 74
105
 0
VERTEX
 8
SIDE
 10
0
 20
0
 30
0
 70
128
 71
108
 72
107
 73
105
 74
105
 0
VERTEX
 8
SIDE
 10
0
 20
0
 30
0
 70
128
 71
109
 72
108
 73
105
 74
105
 0
VERTEX
 8
SIDE
 10
0
 20
0
 30
0
 70
128
 71
110
 72
109
 73
105
 74
105
 0
VERTEX
 8
SIDE
 10
0
 20
0
 30
0
 70
128
 71
111
 72
110
 73
105
 74
105
 0
VERTEX
 8
SIDE
 10
0
 20
0
 30
0
 70
128
 71
112
 72
111
 73
105
 74
105
 0
VERTEX
 8
SIDE
 10
0
 20
0
 30
0
 70
128
 71
113
 72
112
 73
105
 74
105
 0
VERTEX
 8
SIDE
 10
0
 20
0
 30
0
 70
128
 71
114
 72
113
 73
105
 74
105
 0
VERTEX
 8
SIDE
 10
0
 20
0
 30
0
 70
128
 71
115
 72
114
 73
105
 74
105
 0
VERTEX
 8
SIDE
 10
0
 20
0
 30
0
 70
128
 71
208
 72
206
 73
205
 74
205
 0
VERTEX
 8
SIDE
 10
0
 20
0
 30
0
 70
128
 71
208
 72
205
 73
204
 74
204
 0
VERTEX
 8
SIDE
 10
0
 20
0
 30
0
 70
128
 71
116
 72
115
 73
105
 74
105
 0
VERTEX
 8
SIDE
 10
0
 20
0
 30
0
 70
128
 71
208
 72
204
 73
203
 74
203
 0
VERTEX
 8
SIDE
 10
0
 20
0
 30
0
 70
128
 71
208
 72
203
 73
202
 74
202
 0
VERTEX
 8
SIDE
 10
0
 20
0
 30
0
 70
128
 71
137
 72
136
 73
135
 74
135
 0
VERTEX
 8
SIDE
 10
0
 20
0
 30
0
 70
128
 71
149
 72
131
 73
130
 74
130
 0
VERTEX
 8
SIDE
 10
0
 20
0
 30
0
 70
128
 71
202
 72
201
 73
200
 74
200
 0
VERTEX
 8
SIDE
 10
0
 20
0
 30
0
 70
128
 71
185
 72
180
 73
179
 74
179
 0
VERTEX
 8
SIDE
 10
0
 20
0
 30
0
 70
128
 71
186
 72
178
 73
177
 74
177
 0
VERTEX
 8
SIDE
 10
0
 20
0
 30
0
 70
128
 71
187
 72
176
 73
175
 74
175
 0
VERTEX
 8
SIDE
 10
0
 20
0
 30
0
 70
128
 71
187
 72
175
 73
174
 74
174
 0
VERTEX
 8
SIDE
 10
0
 20
0
 30
0
 70
128
 71
187
 72
174
 73
173
 74
173
 0
VERTEX
 8
SIDE
 10
0
 20
0
 30
0
 70
128
 71
208
 72
202
 73
200
 74
200
 0
VERTEX
 8
SIDE
 10
0
 20
0
 30
0
 70
128
 71
208
 72
200
 73
199
 74
199
 0
VERTEX
 8
SIDE
 10
0
 20
0
 30
0
 70
128
 71
208
 72
199
 73
198
 74
198
 0
VERTEX
 8
SIDE
 10
0
 20
0
 30
0
 70
128
 71
208
 72
198
 73
197
 74
197
 0
VERTEX
 8
SIDE
 10
0
 20
0
 30
0
 70
128
 71
208
 72
197
 73
196
 74
196
 0
VERTEX
 8
SIDE
 10
0
 20
0
 30
0
 70
128
 71
208
 72
196
 73
195
 74
195
 0
VERTEX
 8
SIDE
 10
0
 20
0
 30
0
 70
128
 71
208
 72
195
 73
194
 74
194
 0
VERTEX
 8
SIDE
 10
0
 20
0
 30
0
 70
128
 71
208
 72
194
 73
193
 74
193
 0
VERTEX
 8
SIDE
 10
0
 20
0
 30
0
 70
128
 71
208
 72
193
 73
192
 74
192
 0
VERTEX
 8
SIDE
 10
0
 20
0
 30
0
 70
128
 71
208
 72
192
 73
191
 74
191
 0
VERTEX
 8
SIDE
 10
0
 20
0
 30
0
 70
128
 71
208
 72
191
 73
190
 74
190
 0
VERTEX
 8
SIDE
 10
0
 20
0
 30
0
 70
128
 71
208
 72
190
 73
189
 74
189
 0
VERTEX
 8
SIDE
 10
0
 20
0
 30
0
 70
128
 71
208
 72
189
 73
188
 74
188
 0
VERTEX
 8
SIDE
 10
0
 20
0
 30
0
 70
128
 71
208
 72
188
 73
172
 74
172
 0
VERTEX
 8
SIDE
 10
0
 20
0
 30
0
 70
128
 71
208
 72
172
 73
171
 74
171
 0
VERTEX
 8
SIDE
 10
0
 20
0
 30
0
 70
128
 71
208
 72
171
 73
170
 74
170
 0
VERTEX
 8
SIDE
 10
0
 20
0
 30
0
 70
128
 71
208
 72
170
 73
169
 74
169
 0
VERTEX
 8
SIDE
 10
0
 20
0
 30
0
 70
128
 71
208
 72
169
 73
168
 74
168
 0
VERTEX
 8
SIDE
 10
0
 20
0
 30
0
 70
128
 71
208
 72
168
 73
167
 74
167
 0
VERTEX
 8
SIDE
 10
0
 20
0
 30
0
 70
128
 71
208
 72
167
 73
166
 74
166
 0
VERTEX
 8
SIDE
 10
0
 20
0
 30
0
 70
128
 71
208
 72
166
 73
165
 74
165
 0
VERTEX
 8
SIDE
 10
0
 20
0
 30
0
 70
128
 71
208
 72
165
 73
164
 74
164
 0
VERTEX
 8
SIDE
 10
0
 20
0
 30
0
 70
128
 71
208
 72
164
 73
163
 74
163
 0
VERTEX
 8
SIDE
 10
0
 20
0
 30
0
 70
128
 71
208
 72
163
 73
162
 74
162
 0
VERTEX
 8
SIDE
 10
0
 20
0
 30
0
 70
128
 71
208
 72
162
 73
161
 74
161
 0
VERTEX
 8
SIDE
 10
0
 20
0
 30
0
 70
128
 71
208
 72
161
 73
160
 74
160
 0
VERTEX
 8
SIDE
 10
0
 20
0
 30
0
 70
128
 71
208
 72
160
 73
159
 74
159
 0
VERTEX
 8
SIDE
 10
0
 20
0
 30
0
 70
128
 71
208
 72
159
 73
158
 74
158
 0
VERTEX
 8
SIDE
 10
0
 20
0
 30
0
 70
128
 71
129
 72
128
 73
127
 74
127
 0
VERTEX
 8
SIDE
 10
0
 20
0
 30
0
 70
128
 71
122
 72
121
 73
116
 74
116
 0
VERTEX
 8
SIDE
 10
0
 20
0
 30
0
 70
128
 71
156
 72
151
 73
150
 74
150
 0
VERTEX
 8
SIDE
 10
0
 20
0
 30
0
 70
128
 71
208
 72
158
 73
157
 74
157
 0
VERTEX
 8
SIDE
 10
0
 20
0
 30
0
 70
128
 71
208
 72
157
 73
126
 74
126
 0
VERTEX
 8
SIDE
 10
0
 20
0
 30
0
 70
128
 71
208
 72
126
 73
125
 74
125
 0
VERTEX
 8
SIDE
 10
0
 20
0
 30
0
 70
128
 71
208
 72
125
 73
124
 74
124
 0
VERTEX
 8
SIDE
 10
0
 20
0
 30
0
 70
128
 71
208
 72
124
 73
123
 74
123
 0
VERTEX
 8
SIDE
 10
0
 20
0
 30
0
 70
128
 71
208
 72
123
 73
122
 74
122
 0
SEQEND
 0
ENDSEC
 0
EOF
